<svg width="1920" height="1080" viewBox="0 0 1920 1080" fill="none" xmlns="http://www.w3.org/2000/svg">
<rect width="1920" height="1080" fill="white"/>
<path d="M1387.95 578.931C1404.45 578.931 1419.68 567.007 1419.68 543.42C1419.68 519.833 1404.45 507.909 1387.95 507.909C1371.45 507.909 1356.21 519.833 1356.21 543.42C1356.21 567.007 1371.45 578.931 1387.95 578.931ZM1387.95 477.232C1425.26 477.232 1453.45 504.877 1453.45 543.42C1453.45 581.963 1425.28 609.608 1387.95 609.608C1350.62 609.608 1322.45 581.713 1322.45 543.42C1322.45 505.127 1350.62 477.232 1387.95 477.232Z" fill="black"/>
<path d="M1219.04 654H1185.27V481.039H1218.02V496.258C1223.61 486.625 1237.57 478.246 1256.35 478.246C1292.91 478.246 1313.98 506.142 1313.98 543.169C1313.98 580.196 1290.37 608.856 1255.08 608.856C1237.82 608.856 1225.13 602.005 1219.04 593.637V654ZM1280.73 543.42C1280.73 521.361 1267.02 508.422 1249.75 508.422C1232.49 508.422 1218.53 521.361 1218.53 543.42C1218.53 565.479 1232.5 578.669 1249.75 578.669C1267.01 578.669 1280.73 565.73 1280.73 543.42Z" fill="black"/>
<path d="M1016.17 605.824H982.405V481.039H1014.64V496.258C1021.5 484.083 1037.49 477.494 1051.21 477.494C1068.22 477.494 1081.93 484.847 1088.27 498.287C1098.18 483.068 1111.37 477.494 1127.87 477.494C1150.97 477.494 1173.06 491.447 1173.06 524.918V605.824H1140.31V531.769C1140.31 518.329 1133.71 508.183 1118.21 508.183C1103.74 508.183 1095.12 519.343 1095.12 532.784V605.824H1061.6V531.769C1061.6 518.329 1054.74 508.183 1039.52 508.183C1024.3 508.183 1016.17 519.092 1016.17 532.784V605.824Z" fill="black"/>
<path d="M881.938 529.227H937.786C937.284 516.801 929.159 504.626 909.862 504.626C892.345 504.626 882.702 517.816 881.938 529.227ZM941.095 561.683L969.27 570.05C962.926 591.608 943.127 609.608 912.407 609.608C878.138 609.608 847.92 585.007 847.92 542.907C847.92 503.087 877.373 477.22 909.36 477.22C947.942 477.22 971.051 501.821 971.051 541.892C971.051 546.715 970.537 551.788 970.537 552.289H881.173C881.938 568.774 895.894 580.698 912.658 580.698C928.394 580.698 937.033 572.832 941.095 561.683Z" fill="black"/>
<path d="M874.475 459.22H817.611V605.812H782.326V459.22H725.451V426H874.475V459.22Z" fill="black"/>
<path fill-rule="evenodd" clip-rule="evenodd" d="M665 606H485V426H665V606ZM546.328 475.95C545.236 475.95 544.267 476.65 543.923 477.686L536.188 500.895C535.899 501.76 536.543 502.651 537.453 502.651H559.915C560.825 502.651 561.469 503.543 561.181 504.408L544.553 554.293C544.264 555.158 544.908 556.05 545.818 556.05H569.906C570.998 556.05 571.967 555.35 572.312 554.314L588.956 504.385C589.3 503.349 590.269 502.649 591.361 502.649H613.871C614.963 502.649 615.933 501.95 616.277 500.914L624.012 477.707C624.3 476.842 623.657 475.95 622.746 475.95H546.328Z" fill="black"/>
</svg>
